<svg viewBox="0 0 24 24" fill="#FFC629" xmlns="http://www.w3.org/2000/svg"><path d="M22.031 16.59l-2.071 3.424A3.753 3.753 0 0 1 16.59 22.03l-3.424-2.071C12.446 19.52 11.554 19.52 10.835 19.96l-3.424 2.071a3.753 3.753 0 0 1-3.37-.017l-2.071-3.424A3.753 3.753 0 0 1 1.97 15.22l2.071-3.424C4.48 11.077 4.48 10.185 4.04 9.466L1.969 6.042a3.753 3.753 0 0 1 .017-3.37L5.41 1.97A3.753 3.753 0 0 1 8.78 1.953l3.424 2.071c.719.44 1.611.44 2.33 0l3.424-2.071a3.753 3.753 0 0 1 3.37.017l2.071 3.424A3.753 3.753 0 0 1 21.33 8.78l-2.071 3.424c-.44.719-.44 1.611 0 2.33l2.071 3.424a3.753 3.753 0 0 1 .701 2.056zm-10.031-1.22c3.085 0 5.586-2.501 5.586-5.586 0-3.085-2.501-5.586-5.586-5.586-3.085 0-5.586 2.501-5.586 5.586 0 3.085 2.501 5.586 5.586 5.586z"/></svg>
